# File created by Blade
# Date/Time:  Mon Nov 15 14:44:42 2010
#---------------------------------------------------------
:version 1.10
:name HOM
:units
  mass 1.0
  length 1.000000
  angle deg
:documentation
     Acclaim Skeleton File
:root
   axis xyz
   order TX TY TZ RX RY RZ
   position 0.000000 0.000000 0.000000
   orientation 0 0 0
:bonedata
   begin
      id 1
      name LeftUpLeg_dum
      direction 1.000000 0.000000 0.000000
      length 4.719518
      axis 0.0 0.0 0.0 xyz
   end
   begin
      id 2
      name RightUpLeg_dum
      direction -1.000000 0.000000 0.000000
      length 4.719518
      axis 0.0 0.0 0.0 xyz
   end
   begin
      id 3
      name Spine_dum
      direction 0.000000 1.000000 0.000000
      length 0.039370
      axis 0.0 0.0 0.0 xyz
   end
   begin
      id 4
      name LeftUpLeg
      direction 0.000000 -1.000000 0.000000
      length 19.141694
      axis 0.0 0.0 0.0 xyz
      dof rx ry rz
   end
   begin
      id 5
      name LeftLeg
      direction 0.000000 -1.000000 0.000000
      length 19.555040
      axis 0.0 0.0 0.0 xyz
      dof rx ry rz
   end
   begin
      id 6
      name LeftFoot
      direction 0.000000 -0.258819 0.965926
      length 6.929396
      axis 15.0 0.0 0.0 xyz
      dof rx ry rz
   end
   begin
      id 7
      name LeftToeBase
      direction 0.000000 0.000000 1.000000
      length 2.952750
      axis 0.0 0.0 0.0 xyz
      dof rx ry rz
   end
   begin
      id 8
      name RightUpLeg
      direction 0.000000 -1.000000 0.000000
      length 19.141694
      axis 0.0 0.0 0.0 xyz
      dof rx ry rz
   end
   begin
      id 9
      name RightLeg
      direction 0.000000 -1.000000 0.000000
      length 19.555040
      axis 0.0 0.0 0.0 xyz
      dof rx ry rz
   end
   begin
      id 10
      name RightFoot
      direction 0.000000 -0.258819 0.965926
      length 6.929396
      axis 15.0 0.0 0.0 xyz
      dof rx ry rz
   end
   begin
      id 11
      name RightToeBase
      direction 0.000000 0.000000 1.000000
      length 2.952750
      axis 0.0 0.0 0.0 xyz
      dof rx ry rz
   end
   begin
      id 12
      name Spine
      direction 0.000000 1.000000 0.000000
      length 11.965764
      axis 0.0 0.0 0.0 xyz
      dof rx ry rz
   end
   begin
      id 13
      name Spine1
      direction 0.000000 1.000000 0.000000
      length 0.000000
      axis 0.0 0.0 0.0 xyz
      dof rx ry rz
   end
   begin
      id 14
      name Spine1_dum1
      direction 0.000000 1.000000 0.000000
      length 9.788721
      axis 0.0 0.0 0.0 xyz
   end
   begin
      id 15
      name Spine1_dum2
      direction 0.000000 1.000000 0.000000
      length 9.788721
      axis 0.0 0.0 0.0 xyz
   end
   begin
      id 16
      name Spine1_dum3
      direction 0.000000 1.000000 0.000000
      length 9.788721
      axis 0.0 0.0 0.0 xyz
   end
   begin
      id 17
      name Neck
      direction 0.000000 1.000000 0.000000
      length 7.029632
      axis 0.0 0.0 0.0 xyz
      dof rx ry rz
   end
   begin
      id 18
      name Head
      direction 0.000000 1.000000 0.000000
      length 4.527550
      axis 0.0 0.0 0.0 xyz
      dof rx ry rz
   end
   begin
      id 19
      name LeftShoulder
      direction 1.000000 -0.000004 0.000000
      length 9.320257
      axis 0.0 0.0 -90.0 xyz
      dof rx ry rz
   end
   begin
      id 20
      name LeftArm
      direction 1.000000 -0.000004 0.000000
      length 12.801352
      axis 0.0 0.0 -90.0 xyz
      dof rx ry rz
   end
   begin
      id 21
      name LeftForeArm
      direction 1.000000 -0.000004 0.000000
      length 11.278127
      axis 0.0 0.0 -90.0 xyz
      dof rx ry rz
   end
   begin
      id 22
      name LeftHand
      direction 0.000000 0.000000 0.000000
      length 0.000000
      axis 0.0 0.0 -90.0 xyz
      dof rx ry rz
   end
   begin
      id 23
      name LeftHand_dum1
      direction 0.000000 0.000000 0.000000
      length 0.000000
      axis 0.0 0.0 -90.0 xyz
   end
   begin
      id 24
      name LeftHand_dum2
      direction 1.000000 -0.000004 0.000000
      length 3.937000
      axis 0.0 0.0 -90.0 xyz
   end
   begin
      id 25
      name LeftHandThumb
      direction 0.000000 0.000000 1.000000
      length 3.937000
      axis 0.0 0.0 -90.0 xyz
      dof rx ry rz
   end
   begin
      id 26
      name RightShoulder
      direction -1.000000 -0.000004 0.000000
      length 9.320257
      axis 0.0 0.0 90.0 xyz
      dof rx ry rz
   end
   begin
      id 27
      name RightArm
      direction -1.000000 -0.000004 0.000000
      length 12.801352
      axis 0.0 0.0 90.0 xyz
      dof rx ry rz
   end
   begin
      id 28
      name RightForeArm
      direction -1.000000 -0.000004 0.000000
      length 11.278127
      axis 0.0 0.0 90.0 xyz
      dof rx ry rz
   end
   begin
      id 29
      name RightHand
      direction 0.000000 0.000000 0.000000
      length 0.000000
      axis 0.0 0.0 90.0 xyz
      dof rx ry rz
   end
   begin
      id 30
      name RightHand_dum1
      direction 0.000000 0.000000 0.000000
      length 0.000000
      axis 0.0 0.0 90.0 xyz
   end
   begin
      id 31
      name RightHand_dum2
      direction -1.000000 -0.000004 0.000000
      length 5.393690
      axis 0.0 0.0 90.0 xyz
   end
   begin
      id 32
      name RightHandThumb
      direction 0.000000 0.000000 1.000000
      length 3.937000
      axis 0.0 0.0 90.0 xyz
      dof rx ry rz
   end
:hierarchy
   begin
      root LeftUpLeg_dum RightUpLeg_dum Spine_dum
      LeftUpLeg_dum LeftUpLeg
      RightUpLeg_dum RightUpLeg
      Spine_dum Spine
      LeftUpLeg LeftLeg
      LeftLeg LeftFoot
      LeftFoot LeftToeBase
      RightUpLeg RightLeg
      RightLeg RightFoot
      RightFoot RightToeBase
      Spine Spine1
      Spine1 Spine1_dum1 Spine1_dum2 Spine1_dum3
      Spine1_dum1 Neck
      Spine1_dum2 LeftShoulder
      Spine1_dum3 RightShoulder
      Neck Head
      LeftShoulder LeftArm
      LeftArm LeftForeArm
      LeftForeArm LeftHand
      LeftHand LeftHand_dum1 LeftHand_dum2
      LeftHand_dum1 LeftHandThumb
      RightShoulder RightArm
      RightArm RightForeArm
      RightForeArm RightHand
      RightHand RightHand_dum1 RightHand_dum2
      RightHand_dum1 RightHandThumb
   end

# File created by Blade
# Date/Time:  Mon Nov 15 14:56:25 2010
# Frame Rate: 200.000 fps
#------------------------------------------------------
:FULLY-SPECIFIED
:DEGREES
640
root  5.416587 40.812749 69.140061 -18.580466 -3.300067 5.951912
LeftUpLeg  20.233567 3.580705 -9.142689
LeftLeg  7.425495 -0.000000 0.000000
LeftFoot  2.612277 9.590104 1.977475
LeftToeBase  -16.874321 0.000000 -0.000000
RightUpLeg  -9.027327 -14.977800 -7.313212
RightLeg  42.259997 -0.000000 0.000000
RightFoot  0.526342 -8.786636 -8.697131
RightToeBase  -33.043465 0.000000 -0.000000
Spine  13.258939 -1.072513 -3.137227
Spine1  2.510294 -0.449161 -4.652126
Neck  15.953046 -0.627381 -2.957014
Head  -21.616923 -4.480325 7.017094
LeftShoulder  -11.211761 11.467092 0.826760
LeftArm  21.245005 8.269086 -75.479528
LeftForeArm  26.944519 -0.000000 0.000000
LeftHand  -7.926500 8.147934 -11.643187
LeftHandThumb  0.000000 -0.000000 0.000000
RightShoulder  -10.032480 -14.080612 1.580531
RightArm  11.803612 -26.185787 76.433365
RightForeArm  11.702392 -0.000000 0.000000
RightHand  -14.236381 -7.659273 26.696952
RightHandThumb  0.000000 -0.000000 0.000000
641
root  5.389696 40.793068 69.421157 -18.409188 -2.904994 5.928346
LeftUpLeg  20.594839 3.466211 -9.127395
LeftLeg  7.233289 -0.000000 0.000000
LeftFoot  2.372256 9.400859 2.069278
LeftToeBase  -16.901773 0.000000 -0.000000
RightUpLeg  -9.376313 -14.962941 -7.134180
RightLeg  40.462782 -0.000000 0.000000
RightFoot  0.569068 -8.767648 -8.381197
RightToeBase  -32.800929 0.000000 -0.000000
Spine  13.186041 -1.187148 -3.148610
Spine1  2.495836 -0.562743 -4.641087
Neck  15.897425 -0.751699 -2.892871
Head  -21.710312 -4.531901 7.184190
LeftShoulder  -11.008055 11.349031 1.011111
LeftArm  21.818887 8.225427 -75.305152
LeftForeArm  27.517598 -0.000000 0.000000
LeftHand  -7.744151 8.131333 -11.620673
LeftHandThumb  0.000000 -0.000000 0.000000
RightShoulder  -10.289597 -14.277235 1.772872
RightArm  11.448558 -25.980120 76.488668
RightForeArm  11.663047 -0.000000 0.000000
RightHand  -14.125914 -7.664942 26.445593
RightHandThumb  0.000000 -0.000000 0.000000
642
root  5.361322 40.770865 69.704141 -18.219903 -2.507167 5.902987
LeftUpLeg  20.931903 3.392606 -9.083254
LeftLeg  7.063946 -0.000000 0.000000
LeftFoot  2.109176 9.176400 2.158460
LeftToeBase  -16.795269 0.000000 -0.000000
RightUpLeg  -9.647416 -14.887385 -6.986818
RightLeg  38.505208 -0.000000 0.000000
RightFoot  0.762157 -8.847365 -8.252611
RightToeBase  -32.681559 0.000000 -0.000000
Spine  13.024368 -1.303398 -3.162122
Spine1  2.598202 -0.673133 -4.610469
Neck  15.850875 -0.855847 -2.861853
Head  -21.861650 -4.618727 7.368771
LeftShoulder  -10.790149 11.178651 1.135485
LeftArm  22.323682 8.306124 -74.987262
LeftForeArm  28.241591 -0.000000 0.000000
LeftHand  -7.641745 7.971044 -11.414852
LeftHandThumb  0.000000 -0.000000 0.000000
RightShoulder  -10.534534 -14.435693 1.955391
RightArm  11.085423 -25.771454 76.523716
RightForeArm  11.732743 -0.000000 0.000000
RightHand  -13.952245 -7.680481 26.193631
RightHandThumb  0.000000 -0.000000 0.000000
643
root  5.332657 40.745216 69.987019 -18.030847 -2.109258 5.878950
LeftUpLeg  21.268885 3.318743 -9.039552
LeftLeg  6.894602 -0.000000 0.000000
LeftFoot  1.845907 8.952347 2.248629
LeftToeBase  -16.688764 0.000000 -0.000000
RightUpLeg  -9.918223 -14.811157 -6.839879
RightLeg  36.547635 -0.000000 0.000000
RightFoot  0.955106 -8.927510 -8.124270
RightToeBase  -32.562189 0.000000 -0.000000
Spine  12.862714 -1.419685 -3.175307
Spine1  2.700511 -0.783578 -4.580047
Neck  15.804267 -0.959970 -2.830750
Head  -22.013287 -4.705067 7.553604
LeftShoulder  -10.572748 11.007808 1.259125
LeftArm  22.829025 8.384044 -74.668600
LeftForeArm  28.965584 -0.000000 0.000000
LeftHand  -7.539961 7.810392 -11.209400
LeftHandThumb  0.000000 -0.000000 0.000000
RightShoulder  -10.780166 -14.593393 2.138740
RightArm  10.723064 -25.562593 76.557236
RightForeArm  11.802438 -0.000000 0.000000
RightHand  -13.778502 -7.695263 25.941614
RightHandThumb  0.000000 -0.000000 0.000000
644
root  5.305270 40.715278 70.267333 -17.829333 -1.692907 5.874940
LeftUpLeg  21.554114 3.239177 -9.011901
LeftLeg  6.797607 -0.000000 0.000000
LeftFoot  1.533846 8.749604 2.347549
LeftToeBase  -16.716512 0.000000 -0.000000
RightUpLeg  -10.132451 -14.654449 -6.754560
RightLeg  34.483884 -0.000000 0.000000
RightFoot  1.114065 -9.184372 -7.758997
RightToeBase  -32.241825 0.000000 -0.000000
Spine  12.765160 -1.534758 -3.184629
Spine1  2.677510 -0.898052 -4.587527
Neck  15.775926 -1.095124 -2.780980
Head  -22.136233 -4.766167 7.703830
LeftShoulder  -10.380413 10.927705 1.392916
LeftArm  23.418497 8.370955 -74.397778
LeftForeArm  29.604959 -0.000000 0.000000
LeftHand  -7.582601 7.921627 -11.035181
LeftHandThumb  0.000000 -0.000000 0.000000
RightShoulder  -11.140225 -14.768952 2.347246
RightArm  10.407178 -25.419184 76.564032
RightForeArm  11.867924 -0.000000 0.000000
RightHand  -13.458776 -7.460142 25.651893
RightHandThumb  0.000000 -0.000000 0.000000
645
root  5.277195 40.681965 70.548311 -17.627886 -1.276544 5.872395
LeftUpLeg  21.839282 3.159474 -8.984649
LeftLeg  6.700611 -0.000000 0.000000
LeftFoot  1.221599 8.547396 2.447532
LeftToeBase  -16.744260 0.000000 -0.000000
RightUpLeg  -10.346286 -14.497435 -6.669908
RightLeg  32.420134 -0.000000 0.000000
RightFoot  1.271478 -9.442229 -7.394178
RightToeBase  -31.921461 0.000000 -0.000000
Spine  12.667618 -1.649846 -3.193755
Spine1  2.654525 -1.012530 -4.594962
Neck  15.747467 -1.230253 -2.731141
Head  -22.259350 -4.826945 7.854201
LeftShoulder  -10.188320 10.847161 1.526396
LeftArm  24.007879 8.355110 -74.127117
LeftForeArm  30.244334 -0.000000 0.000000
LeftHand  -7.624910 8.032990 -10.860999
LeftHandThumb  0.000000 -0.000000 0.000000
RightShoulder  -11.501234 -14.943239 2.557058
RightArm  10.091686 -25.275744 76.569946
RightForeArm  11.933411 -0.000000 0.000000
RightHand  -13.140422 -7.223426 25.363652
RightHandThumb  0.000000 -0.000000 0.000000
646
root  5.246152 40.646248 70.832982 -17.423350 -0.868310 5.889949
LeftUpLeg  22.121020 3.099380 -8.948372
LeftLeg  6.620598 -0.000000 0.000000
LeftFoot  0.878897 8.302530 2.501995
LeftToeBase  -16.706045 0.000000 -0.000000
RightUpLeg  -10.461715 -14.328080 -6.645563
RightLeg  30.219202 -0.000000 0.000000
RightFoot  1.577866 -9.743108 -7.294981
RightToeBase  -31.723750 0.000000 -0.000000
Spine  12.509579 -1.751865 -3.222072
Spine1  2.687210 -1.119217 -4.613953
Neck  15.770260 -1.351774 -2.688270
Head  -22.424344 -4.896314 8.049438
LeftShoulder  -9.960123 10.750711 1.680341
LeftArm  24.577256 8.267840 -73.893101
LeftForeArm  30.816679 -0.000000 0.000000
LeftHand  -7.554518 8.066098 -10.759921
LeftHandThumb  0.000000 -0.000000 0.000000
RightShoulder  -11.758791 -15.137327 2.771821
RightArm  9.709980 -24.904288 76.621380
RightForeArm  12.116821 -0.000000 0.000000
RightHand  -12.886628 -7.098175 25.172927
RightHandThumb  0.000000 -0.000000 0.000000
647
root  5.214643 40.607113 71.119488 -17.218705 -0.460140 5.908959
LeftUpLeg  22.402703 3.039109 -8.912393
LeftLeg  6.540584 -0.000000 0.000000
LeftFoot  0.536171 8.057990 2.557903
LeftToeBase  -16.667829 0.000000 -0.000000
RightUpLeg  -10.576984 -14.158678 -6.621589
RightLeg  28.018271 -0.000000 0.000000
RightFoot  1.884006 -10.044505 -7.197328
RightToeBase  -31.526039 0.000000 -0.000000
Spine  12.351581 -1.853963 -3.250110
Spine1  2.719933 -1.225893 -4.633006
Neck  15.792964 -1.473312 -2.645445
Head  -22.589591 -4.965123 8.244894
LeftShoulder  -9.732263 10.653660 1.833845
LeftArm  25.146141 8.178275 -73.660025
LeftForeArm  31.389025 -0.000000 0.000000
LeftHand  -7.484061 8.099082 -10.658794
LeftHandThumb  0.000000 -0.000000 0.000000
RightShoulder  -12.017339 -15.330480 2.987684
RightArm  9.329780 -24.532530 76.669940
RightForeArm  12.300231 -0.000000 0.000000
RightHand  -12.633325 -6.972088 24.982815
RightHandThumb  0.000000 -0.000000 0.000000
648
root  5.185162 40.563537 71.407103 -17.025751 -0.026140 5.964312
LeftUpLeg  22.678673 2.953530 -8.914602
LeftLeg  6.502302 -0.000000 0.000000
LeftFoot  0.148167 7.850100 2.626175
LeftToeBase  -16.615341 0.000000 -0.000000
RightUpLeg  -10.588478 -14.034927 -6.671287
RightLeg  25.686723 -0.000000 0.000000
RightFoot  2.135818 -10.515054 -6.952980
RightToeBase  -31.580744 0.000000 -0.000000
Spine  12.232587 -1.962935 -3.302380
Spine1  2.720763 -1.350006 -4.668879
Neck  15.778504 -1.628501 -2.583022
Head  -22.707675 -5.007215 8.363703
LeftShoulder  -9.530756 10.528989 1.987736
LeftArm  25.652940 8.093210 -73.438892
LeftForeArm  31.981384 -0.000000 0.000000
LeftHand  -7.455177 8.137344 -10.552135
LeftHandThumb  0.000000 -0.000000 0.000000
RightShoulder  -12.317101 -15.515502 3.200843
RightArm  8.955029 -24.253126 76.685588
RightForeArm  12.550884 -0.000000 0.000000
RightHand  -12.331155 -6.702861 24.837909
RightHandThumb  0.000000 -0.000000 0.000000
649
root  5.155453 40.516527 71.695457 -16.832373 0.407672 6.021127
LeftUpLeg  22.954626 2.867963 -8.917224
LeftLeg  6.464020 -0.000000 0.000000
LeftFoot  -0.239897 7.642673 2.695833
LeftToeBase  -16.562853 0.000000 -0.000000
RightUpLeg  -10.600076 -13.911185 -6.720984
RightLeg  23.355174 -0.000000 0.000000
RightFoot  2.385977 -10.986652 -6.710360
RightToeBase  -31.635449 0.000000 -0.000000
Spine  12.113684 -2.072016 -3.354426
Spine1  2.721671 -1.474119 -4.704755
Neck  15.763875 -1.783675 -2.520554
Head  -22.825854 -5.049064 8.482606
LeftShoulder  -9.329672 10.403786 2.141118
LeftArm  26.159297 8.006212 -73.218574
LeftForeArm  32.573743 -0.000000 0.000000
LeftHand  -7.426218 8.175553 -10.445447
LeftHandThumb  0.000000 -0.000000 0.000000
RightShoulder  -12.617847 -15.699444 3.415197
RightArm  8.581178 -23.973635 76.699201
RightForeArm  12.801537 -0.000000 0.000000
RightHand  -12.029835 -6.432880 24.694513
RightHandThumb  0.000000 -0.000000 0.000000
